<svg xmlns="http://www.w3.org/2000/svg" width="339" height="477" viewBox="0 0 339 477">
  <metadata><?xpacket begin="﻿" id="W5M0MpCehiHzreSzNTczkc9d"?>
<x:xmpmeta xmlns:x="adobe:ns:meta/" x:xmptk="Adobe XMP Core 5.6-c138 79.159824, 2016/09/14-01:09:01        ">
   <rdf:RDF xmlns:rdf="http://www.w3.org/1999/02/22-rdf-syntax-ns#">
      <rdf:Description rdf:about=""/>
   </rdf:RDF>
</x:xmpmeta>
                                                                                                    
                                                                                                    
                                                                                                    
                                                                                                    
                                                                                                    
                                                                                                    
                                                                                                    
                                                                                                    
                                                                                                    
                                                                                                    
                                                                                                    
                                                                                                    
                                                                                                    
                                                                                                    
                                                                                                    
                                                                                                    
                                                                                                    
                                                                                                    
                                                                                                    
                                                                                                    
                           
<?xpacket end="w"?></metadata>
<defs>
    <style>
      .cls-1 {
        fill-rule: evenodd;
      }
    </style>
  </defs>
  <path class="cls-1" d="M114.175,2.033c11-.241,17.923,1.749,24.009,6.123,1.865,1.34,4.923,2.919,5.336,5.59-3.7,1.906-7.269,7.986-10.938,9.317V22.8c-3.207-3.085-5.983-5.454-11.2-6.655-3.016-.694-6.426.389-8.27,1.065-7.084,2.6-8.647,5.913-10.4,13.842a13.608,13.608,0,0,0,0,5.59c2.136,8.331,11.174,16.714,22.409,11.979a24.116,24.116,0,0,0,4.268-2.4c1.368-.993,1.987-2.81,3.735-3.461,1.831,2.535,9.869,7.571,10.4,10.116l-3.2,3.461c-4.707,3.524-9.67,5.634-16.539,7.187-5.359,1.212-12.306-.046-16.273-1.331C96.564,58.65,90.217,52.91,86.7,41.964c-0.939-2.92-2.311-8.382-1.334-12.778,0.592-2.662.868-5.6,1.867-7.986A31.038,31.038,0,0,1,104.038,4.429l6.4-1.863C111.707,2.249,113.219,2.625,114.175,2.033Zm54.954,0c8-.22,14.737.551,20.275,2.662,1.856,0.708,5.143,1.15,5.6,3.194-1.969,2.311-3.279,10.806-5.6,11.979-3.145-3-16.244-6.369-22.409-3.727-1.429.613-1.94,1.9-2.934,2.928-0.088,1.205-.371,1.791.266,2.662,1.326,3.442,7.4,3.461,11.205,4.526,10.45,2.922,18.966,4.342,21.608,15.174a17.058,17.058,0,0,1,.267,6.123c-3.4,14.257-21.727,19.788-38.948,14.641-3.61-1.079-11.124-2.518-12.539-5.324,1.875-2.062,4.347-9.3,5.6-12.245,6.914,3.32,21.067,10.133,29.077,2.662l0.267-1.863c-0.476-.57-0.546-1.595-1.067-2.13-2.1-2.158-5.977-2.255-9.337-3.194-5.929-1.658-12.481-2.8-17.073-5.857-4.318-2.872-8.185-10.187-5.869-17.836A19.437,19.437,0,0,1,156.058,5.76a31.65,31.65,0,0,1,7.736-2.928C165.417,2.388,167.789,2.848,169.129,2.033Zm54.954,0c7.952-.2,14.518.619,20.008,2.662,1.983,0.738,5,1.117,5.869,2.928-1.918,2.133-3.93,9.253-5.336,12.245-1.267-.612-2.3-0.994-3.734-1.6-5.021-2.11-22.113-7.036-22.142,3.194a0.956,0.956,0,0,1,.267.532c1.105,0.7,1.914,1.849,3.2,2.4,2.233,0.949,4.41.889,6.936,1.6,8.818,2.473,16.785,3.691,21.075,10.648a17.049,17.049,0,0,1,1.6,12.778,22.524,22.524,0,0,1-3.2,6.123c-6.383,8.564-25.987,10.392-38.415,5.856-2.539-.927-8.771-2.342-9.336-4.792,1.827-2.07,4.023-11.024,5.868-11.979,2.5,3.146,11.448,5.065,16.54,5.857,5.909,0.918,12.209-.34,12.271-5.59-0.6-.6-0.9-1.642-1.6-2.13-2.682-1.864-6.266-1.92-9.871-2.928-5.321-1.489-11.322-2.565-15.472-5.324-4.614-3.067-9.155-11.281-5.869-19.433a20.337,20.337,0,0,1,8.537-9.583c2.4-1.45,5.864-2.2,8.8-2.928C221.386,2.241,223.077,2.645,224.083,2.033ZM4,99.464H333.992a67.906,67.906,0,0,1-1.334,15.439c-0.933,4.021-.215,8.3-1.067,11.98v3.46c-1.018,4.521-.556,10.127-1.6,14.641q-0.267,4.659-.533,9.318c-1.87,8.315-.744,18.062-2.668,26.354v3.727c-0.993,4.407-.576,9.948-1.6,14.375v3.46c-1.869,8.291-.747,18.077-2.667,26.354-0.9,3.887-.209,8.546-1.067,12.246-0.712,3.063-.153,6.523-0.8,9.317-1.143,4.934-.242,10.459-1.334,15.173q-0.666,9.051-1.333,18.1c-2.144,9.531-.716,20.531-2.935,30.081-0.659,2.836-.217,6.006-0.8,8.519-0.884,3.808-.225,8.341-1.067,11.979q-0.534,7.719-1.067,15.44c-1.869,8.287-.746,18.079-2.668,26.354l-0.534,9.583c-1.37,6.068-.441,11.935-1.867,18.1l-0.267,6.123c-0.831,3.726-.164,7.923-1.067,11.979a89,89,0,0,0-1.6,16.771H303.58c-1.03.732-2.353,0.607-3.735,1.064-3.605,1.194-7.618,1.921-11.471,3.2-12.126,4.008-24.856,6.537-37.347,10.382-10.754,3.31-22.356,6.089-33.079,9.583-3.408,1.11-6.437,1.283-9.871,2.4-12.239,3.968-25.423,7.59-37.881,10.914-2.813.751-9.5-2.192-11.737-2.928-8.889-2.922-18.059-4.618-26.677-7.454-4-1.316-7.741-1.623-11.738-2.928-11.2-3.655-22.868-6.035-34.413-9.583-7.92-2.434-16.646-4.592-24.543-7.188-2.4-.789-4.485-0.8-6.936-1.6-6.456-2.1-13.53-4.264-20.274-5.856V437.01c-0.916-1.529-.1-4.145-0.534-6.123-1.227-5.548-.319-12.069-1.6-17.836-0.864-3.888-.128-8.279-1.067-12.511-0.83-3.743-.171-8.2-1.067-12.246-1.859-8.392-.822-18.225-2.668-26.62l-1.067-15.44c-0.975-4.393-.634-9.98-1.6-14.375V328.4c-0.814-3.668-.2-8.039-1.067-11.98-0.816-3.694-.193-8.024-1.067-11.979-0.816-3.694-.193-8.024-1.067-11.979-2.088-9.451-.867-20.369-2.934-29.815l-1.6-21.562c-0.812-3.662-.195-8.03-1.067-11.979-2.274-10.3-.943-22.474-3.2-32.743L11.2,180.922c-1.671-7.543-.72-16.368-2.4-23.958l-0.267-6.123c-0.971-4.394-.635-9.98-1.6-14.375v-3.461c-1.013-4.6-.264-10.05-1.334-14.907C4.348,112.413,4.053,105.737,4,99.464Zm60.823,69.479,2.668,38.865,161.127-.532c0.074,14.362-2.806,28.109-2.934,42.593L71.492,251.732V252c1.347,2.216.621,9.315,1.334,12.512,0.863,3.869.4,8.3,1.334,12.511a88.192,88.192,0,0,1,1.6,13.843c48.315-.035,97.778-0.512,146.189-0.533q-3.068,29.014-6.135,58.033H215.28c-1.747,1.26-4.692,1.174-6.936,1.863-4.814,1.479-9.85,2.444-14.939,3.993-7.55,2.3-15.825,4.649-23.475,6.655-2.055.539-6.4-1.367-8-1.863-7.2-2.232-14.654-3.566-21.608-5.857-4.283-1.41-8.722-2.2-12.805-3.46-1.724-.53-3.749-0.387-5.068-1.331-1.134-1.864-.241-6.236-0.8-8.785-0.786-3.574-.211-7.8-1.068-11.713a73.839,73.839,0,0,1-1.333-13.842H77.895a83.987,83.987,0,0,0,1.6,17.037v3.993c0.8,3.59.207,7.842,1.067,11.713,0.813,3.66.192,8.033,1.067,11.979,0.8,3.591.209,7.841,1.067,11.713a65.35,65.35,0,0,1,1.067,9.849c2.308,0.235,4.438,1.266,6.4,1.864,5.289,1.607,10.493,2.649,15.472,4.259,11.047,3.572,21.96,5.426,33.08,8.785,6.187,1.868,12.745,3.269,19.207,5.324,3.206,1.019,7.1,2.5,10.4,3.194,1.8,0.382,4.473-1.151,5.869-1.6,5.822-1.86,11.774-3.114,17.34-4.792,11.117-3.35,22.046-5.214,33.079-8.784,9.5-3.075,19.655-6.081,29.611-8.253v-1.331c0.906-1.5.085-3.834,0.534-5.856,0.8-3.593.21-7.839,1.067-11.713,2.257-10.215.943-22,3.2-32.211,0.751-3.393-.216-6.189.533-9.583,0.816-3.694.176-7.941,1.068-11.979,2.462-11.151,1.028-24.254,3.468-35.4q0.533-7.719,1.067-15.44c1.839-8.3.842-18.029,2.667-26.354l0.534-9.317c1.395-6.3.748-13.928,2.134-20.232v-3.46c0.794-3.595.214-7.836,1.067-11.713a88.765,88.765,0,0,0,1.6-16.771H64.823Z"/>
</svg>
