<svg xmlns="http://www.w3.org/2000/svg" width="1000" height="1000" viewBox="0 0 1000 1000">
  <metadata><?xpacket begin="﻿" id="W5M0MpCehiHzreSzNTczkc9d"?>
<x:xmpmeta xmlns:x="adobe:ns:meta/" x:xmptk="Adobe XMP Core 5.6-c138 79.159824, 2016/09/14-01:09:01        ">
   <rdf:RDF xmlns:rdf="http://www.w3.org/1999/02/22-rdf-syntax-ns#">
      <rdf:Description rdf:about=""/>
   </rdf:RDF>
</x:xmpmeta>
                                                                                                    
                                                                                                    
                                                                                                    
                                                                                                    
                                                                                                    
                                                                                                    
                                                                                                    
                                                                                                    
                                                                                                    
                                                                                                    
                                                                                                    
                                                                                                    
                                                                                                    
                                                                                                    
                                                                                                    
                                                                                                    
                                                                                                    
                                                                                                    
                                                                                                    
                                                                                                    
                           
<?xpacket end="w"?></metadata>
<defs>
    <style>
      .cls-1 {
        fill: none;
        stroke: #000;
        stroke-width: 25px;
      }

      .cls-2 {
        fill-rule: evenodd;
      }
    </style>
  </defs>
  <circle class="cls-1" cx="500" cy="500" r="361"/>
  <path class="cls-2" d="M437.87,461.986c-0.083,3.695-2.221,7.51-3.372,10.61-2.952,7.957-5.208,15.781-8.428,23.391h0.24v-0.241c1.675-1.893,2.3-5.036,3.372-7.476,2.423-5.514,4.787-11.713,7.465-17.121,0.92-1.857,2.214-7.212,4.335-7.475,1.155,0.864,2.709,1.064,3.371,2.411,0.868,1.767.042,5.462-.481,6.993-2.023,5.922-4.025,11.857-6.262,17.845-4.493,12.029-8.67,24.752-12.763,37.136-1.281,3.876-1.847,7.418-3.131,11.333-2.749,8.39-6.148,18.471-6.5,28.7h0.241a38.979,38.979,0,0,1,4.094-2.893c1.924-1.446,3.366-3.842,4.816-5.788,0.71-.952,1.938-1.708,2.649-2.652,1.131-1.5,2.435-3.929,4.817-4.1v0.483c-1.906,1.387-4.707,6.113-6.261,8.2-1.6,2.143-3.951,3.883-5.539,6.029a67.378,67.378,0,0,0-6.743,11.092h0.241c1.77-2.732,4.8-4.656,6.743-7.234,5.12-6.795,10.9-13.2,15.893-20.015,2.215-3.018,5.4-10.089,8.911-11.333v0.482c-1.444,1.2-2.077,3.465-3.131,5.064q-3.519,5.337-7.224,10.61c-3.432,4.88-7.85,9.166-11.319,13.986a146.109,146.109,0,0,0-11.8,19.051h0.241v-0.241a60.763,60.763,0,0,0,6.261-7.476c1.291-1.714,3.282-3.105,4.576-4.823a15.342,15.342,0,0,1,3.371-3.858v0.482c-1.548,1.687-2.6,4.641-3.612,6.752h0.481c0.326-.5,1.9-1.775,2.168-1.447,0.156,0.208.322,0.759,0.482,0.965v-0.241a26.115,26.115,0,0,0,3.853-6.27H429.2c0.389-3.2,2.824-8,5.539-8.922a2.022,2.022,0,0,0,.241,1.206v-0.483c2.417-2.333,2.874-5.026,4.816-7.716,0.99-1.371,2.545-2.527,3.372-4.1,0.991-1.885,1.3-3.628,2.408-5.3,0.658-.993,2.035-2.149,2.408-3.376,0.077-.253-0.4-0.434-0.241-0.964,0.06-.2.664-0.767,0.723-0.965,0.078-.264-0.447-0.434-0.241-0.964,0.539-1.391,2.219-2.87,2.649-4.341,0.217-.744-0.339-2.528-0.482-3.135-0.735-3.124-.021-7.093-0.482-10.128a27.383,27.383,0,0,1,.482-6.269V514.8l1.686-10.369c5.3-18.767,12.024-35.358,25.767-45.576,2.7-2.007,5.3-4.394,8.429-6.029,6.172-3.228,19.352-5.55,28.657-3.134,8.317,2.159,15.013,5.338,21.915,8.922,2.959,1.537,6.05,3.926,9.391,4.823,0-4.3,1.2-9.136,2.168-13.022,1.92-7.682,2.2-15.745,4.094-23.15,2.123-8.285,2.518-16.318,5.057-24.114,2.215-6.8,3.563-14.163,6.261-20.738,7.82-19.053,15.818-36.944,29.139-50.4,6.179-6.24,13.183-12.827,21.914-16.4,15.2-6.217,28.624,6.931,33.715,15.192,9.507,15.428,4.755,39.389-1.445,54.5-3.309,8.062-6.091,15.647-9.874,22.908-0.839,1.612-1.227,3.273-2.167,4.823-3.721,6.133-7.019,12.515-10.837,18.568-4.919,7.8-10.675,15.106-16.135,22.426-5.735,7.69-13.473,13.788-19.265,21.462-3.125,4.14-7.017,5.915-8.429,12.057q-0.24,18.927-.481,37.859c0,6.1-.275,12.868.241,18.568,0.339,3.753-.5,8.226.24,11.575,0.866,3.937-.358,9.205.482,13.022v5.064c1.458,6.583.473,14.4,1.927,20.738q0.36,3.616.722,7.234c1.823,7.55,2.77,15.391,6.743,20.738,2.814,3.788,8.237,5.661,13.727,6.752,0.072,1.351.417,1.462,0.481,2.894-0.526.635-.767,1.7-1.445,2.17-1.509,1.044-3.1.711-5.3,1.206-7.529,1.694-16.038-.281-20.71-3.135-1.838-1.122-3.2-2.811-4.816-4.1-4.973-3.961-7.644-10.395-10.355-16.639-4.018-9.254-6.3-19.9-9.152-30.625l-2.889-17.121c-1.628-7.027-1.069-14.878-2.649-21.7-0.566-2.442-.056-6.91-1.2-8.681a1.231,1.231,0,0,0-.723-0.241c-2.021,4.159-5.279,7.909-7.706,11.816-7.023,11.3-13.218,21.776-23.841,29.419-2.472,1.779-4.987,4.023-7.947,5.305-10.82,4.688-26.578,2.8-34.678-2.894-7.615-5.349-12.855-13.45-16.616-22.667a68.14,68.14,0,0,1-2.167-7.475c-0.363-1.31-.068-2.853-0.723-3.859v0.483a14.979,14.979,0,0,0-1.2,2.411c-1.842,3.03-3.395,6.3-5.3,9.4-4.428,7.224-8.888,14.553-13.727,21.461-4.712,6.729-10.273,12.8-15.171,19.292-2.145,2.842-5.97,4.525-7.947,7.475-5.611-2.14-14.232-4.023-16.857-9.163-1.731-3.389-2.261-11.771-1.2-16.639q0.12-4.22.241-8.44,0.722-6.632,1.444-13.263c2.252-9.508,3.207-19.476,5.539-28.7,1.475-5.83,1.39-11.932,3.372-17.362h-0.241c-0.948,1.439-2.6,2.279-3.612,3.617-2.262,2.992-5.114,5.306-7.707,7.958-1.275,1.3-2.324,2.81-3.612,4.1l-3.853,3.617c-2.542,3.365-5.929,6.1-8.429,9.4-4.469,5.917-12.556,13.113-19.747,16.156-5.353,2.266-12.979,1.825-18.061-.241-9.323-3.789-17.695-8.8-20.229-19.291-0.76-3.148.144-9.271,0.723-11.575,0.715-2.846.584-5.32,1.445-7.958,2.106-6.455,4.437-12.747,6.984-18.568,6.223-14.227,13.933-26.1,22.4-37.859,10.955-15.228,24.929-28.763,45.273-34.483a30.932,30.932,0,0,1,8.429-.724c12.946,0,18.946,5.417,26.249,10.852,2.4,1.784,9.135,5.934,5.539,10.369a1.231,1.231,0,0,1-.723.241c-1.32-1.015-3.538-.886-5.3-1.447a64.654,64.654,0,0,0-7.706-2.411c-0.985-.168-3.3,1.3-4.094,1.688a85.3,85.3,0,0,0-10.114,5.305c-15.911,10.479-30.473,30.108-38.531,48.469-2.767,6.3-6.056,12.53-8.91,19.051-0.456,1.042-3.3,5.857-2.89,6.511l0.482,0.723a0.687,0.687,0,0,0,.241-0.241c7.481-4.4,12.953-11.259,19.747-16.4,1.485-1.124,2.611-2.977,4.093-4.1,4.256-3.224,7.782-7.148,12.041-10.369l1.927-2.171c3.287-2.488,5.922-5.756,9.151-8.2a65.452,65.452,0,0,0,6.743-5.788,52.331,52.331,0,0,0,7.465-9.163c1.185-1.919,1.84-3.81,3.131-5.547,2.092-2.816,5.925-4.838,9.392-6.269,0.04,1.21.131,3.543,0.722,4.34,0.409-1.229,1.453-1.492,3.131-1.447a13.424,13.424,0,0,0,1.926,1.447q-0.24,1.567-.481,3.135h0.24C435.4,461.053,435.971,461.645,437.87,461.986ZM636.544,327.911c-1.115.767-2.788,0.659-4.094,1.206a27.54,27.54,0,0,0-5.539,3.617,18.046,18.046,0,0,0-3.13,3.617c-2.111,2.8-4.691,5.511-6.743,8.44-2.256,3.218-3.7,6.694-5.78,10.128-9.294,15.314-13.429,34.681-18.784,54.016-1.628,5.881-1.575,11.732-3.13,17.844-1.212,4.763-1.377,9.956-2.649,14.951a108.68,108.68,0,0,0-2.408,12.3h0.481a22.709,22.709,0,0,1,2.168-1.929c1.281-1.438,2.735-3.063,3.853-4.582,2.442-3.32,4.521-6.8,6.983-10.128,2.531-3.421,5.713-6.62,8.188-10.128,12.788-18.123,24.7-36.942,32.992-59.562,2.783-7.591,4.8-22.542,1.927-31.83C640.035,333.138,639.071,328.843,636.544,327.911Zm-31.306.482-0.482.724,0.963-.483A0.871,0.871,0,0,0,605.238,328.393Zm13.245,3.135c-1.81,1.884-4.426,2.951-6.021,5.064a120.021,120.021,0,0,0-14.69,24.6c-1.3,2.974-3.555,6.046-4.094,9.646h0.241v-0.241c1.918-2.1,2.569-5.208,4.094-7.717,2.547-4.19,4.62-8.757,7.225-13.021,2.351-3.851,4.816-7.722,7.465-11.334,1.793-2.444,4.336-4.451,6.02-6.993h-0.24Zm-17.339,1.447c-1.964,3.072-4.809,5.447-6.743,8.681h0.241C595.767,339.755,601.318,334.594,601.144,332.975Zm48.163,21.944a1.862,1.862,0,0,0-.722.723c-1.317,1.813-1.4,4.683-2.168,6.993-1.938,5.823-3.332,12.239-5.538,18.086a160.506,160.506,0,0,1-12.523,26.526c-1.883,3.1-2.947,6.352-4.816,9.4-1.4,2.3-2.954,4.8-4.576,6.993-0.561.76-1.633,1.386-2.167,2.171-1.137,1.67-1.75,3.434-2.89,5.064a31.245,31.245,0,0,0-2.408,3.134q-0.12.724-.241,1.447c-0.229.352-1.234,0.394-1.445,0.724V438.6a1.723,1.723,0,0,1,.482.965h0.241v-2.653c0.208-.391,1.144-0.4,1.445-0.723a53.7,53.7,0,0,0,2.889-4.823c2.625-4.217,5.113-8.109,7.947-12.057,1.694-2.359,4.152-4.373,5.539-6.993H628.6v0.723c-0.875,1.146-1.069,2.693-1.686,4.1a59.949,59.949,0,0,1-4.094,7.476c-4.2,6.673-9.408,12.664-13.485,19.532h0.24V443.9c4.461-2.987,5.432-11.347,10.6-13.021a3.837,3.837,0,0,0,.482,1.446c0.183-2.654,2.453-3.83,3.612-5.546a74.16,74.16,0,0,0,4.576-8.922,1.56,1.56,0,0,1-.964-0.241,20.75,20.75,0,0,0,3.372-5.305h0.241q0.12,0.6.241,1.205h0.24c0.059-2.275,2.7-6.872,3.853-8.44,0.413-.56,1.392-1.024,1.686-1.688,0.461-1.041.064-1.963,0.482-2.893l2.649-3.618c0.431-.958.061-1.788,0.481-2.893,0.292-.766,1.344-1.4,1.686-2.17l0.963-4.1c0.735-1.764,2.716-4.108,3.613-6.27,1.853-4.468,2.3-9.187,3.612-14.227,0.494-1.891,1.48-5.256,1.2-7.475-0.266-2.135-1.6-3.185-2.167-4.823h-0.723Zm-4.816.964a3.359,3.359,0,0,0,.482,1.688C645,356.6,645.1,356.253,644.491,355.883Zm0,3.135a4.136,4.136,0,0,1-1.445.482v0.483c-1.058,1.826-.762,4.453-1.445,6.511-1.537,4.632-3.142,9.161-5.057,13.5a311.531,311.531,0,0,1-29.861,52.81c-4.644,6.616-10.091,12.624-14.931,19.05-1.634,2.169-6.774,5.688-6.984,8.681h0.241c1.637-2.574,4.215-4.579,6.02-6.993,5.414-7.24,11.415-14.087,16.617-21.462,6.984-9.9,13.579-20.175,19.988-30.625,1.6-2.6,2.5-5.327,4.094-7.957,5.789-9.547,11.543-21.126,13.245-34.484h-0.482Zm-52.017,14.469a27.007,27.007,0,0,0-1.926,4.1h0.241c0.516-.557,1.129-1.169,1.685-1.688A9.411,9.411,0,0,0,592.474,373.487Zm15.172,65.831c-1.037,1.751-2.586,3.138-2.649,5.788h0.241v-0.482c1-.789,1.394-2.108,2.167-3.135,0.642-.854,1.815-1.018,2.649-1.688A7.019,7.019,0,0,1,607.646,439.318Zm-5.78,8.44c-0.753.94-1.206,0.78-1.2,2.653H600.9v-0.482A10.315,10.315,0,0,0,602.829,448Zm4.576,0-2.649,3.376h0.241C604.769,450.31,607.426,449.437,606.442,447.758Zm-7.225,3.618a1.629,1.629,0,0,1-.963.241l-4.576,7.234h0.241c1.789-2.721,4.714-4.421,6.261-7.475h-0.963Zm-221.793,7.957a9.228,9.228,0,0,1-2.408,1.929,37.816,37.816,0,0,0-6.5,7.235,178.062,178.062,0,0,0-19.988,34.242c-3.384,7.716-7.306,16.01-8.669,25.8H340.1V528.3c1.357-1.547,1.548-3.966,2.408-6.029,1.915-4.593,3.734-9.339,5.779-13.986a256.532,256.532,0,0,1,18.062-33.76c2.394-3.772,5.282-7.458,7.947-11.092C375.114,462.314,377.532,460.481,377.424,459.333Zm-20.469.241c-1.669,2.626-4.216,4.906-6.021,7.476-3.688,5.252-6.217,11.009-9.632,16.639a124.012,124.012,0,0,0-8.188,15.674h0.241v-0.241c1.643-2.071,2.443-4.685,3.853-6.993,3.647-5.972,6.6-12.594,10.355-18.568,1.809-2.877,3.771-5.881,5.78-8.681,1.165-1.625,2.931-2.965,3.612-5.064H357.2v-0.242h-0.241Zm69.837,2.171a2.492,2.492,0,0,1-.722,1.688h0.24a0.864,0.864,0,0,1,.482-0.241A1.608,1.608,0,0,0,426.792,461.745Zm117.76,18.568a1.56,1.56,0,0,1-.964-0.241c-1.173-.406-1.554-1.287-2.408-1.93-5.31-4-8.31-10.422-14.69-13.262-1.819-.811-5.387-2.357-8.669-1.447-4.651,1.289-10.074,8.175-12.763,11.816-2.173,2.941-4.541,5.944-6.5,9.163-4.169,6.839-6.545,15.671-8.911,24.114-1.721,6.145-1.409,12.821-2.89,19.533-0.513,2.328-.2,10.774.241,12.78q0.122,3.616.241,7.235c1.758,7.84,2.08,16.366,6.984,20.979v-0.241c6.845-4.556,11.408-11.847,16.135-18.568,2.69-3.826,5.97-7.5,8.669-11.334,4.426-6.293,8.485-12.611,12.763-19.05,3.2-4.813,6.261-9.656,9.392-14.71,1.087-1.754,2.774-3.88,3.372-6.028V480.313ZM422.216,468.5a14.883,14.883,0,0,0-1.444,2.893h0.24v-0.482C421.524,470.416,422.445,468.916,422.216,468.5Zm6.984,2.17c-0.832,1.035-1.606.963-1.686,2.894a0.679,0.679,0,0,1,.241.241A0.864,0.864,0,0,0,428,473.32C428.507,472.815,429.415,471.059,429.2,470.667Zm-72.727,4.341c-1.731,3.043-4.17,5.752-6.02,8.681a124.013,124.013,0,0,0-6.743,12.3h0.241v-0.241c1.556-1.671,2.378-4.044,3.612-6.029,1.937-3.117,4.3-6.26,6.261-9.4C354.324,479.513,356.655,475.2,356.473,475.008ZM488.2,482.724v0.482h0.241A0.823,0.823,0,0,0,488.2,482.724Zm-0.963,1.929c-2.793,2.849-3.829,7.124-5.539,11.093A136.472,136.472,0,0,0,476.16,510.7c-1.088,3.663-.85,7.711-1.686,11.574-0.629,2.905-.031,10.7.481,13.022,0.4,1.825-.123,3.735.723,5.064,0.667-7.127.881-15.136,2.408-21.944,1.054-4.7.476-9.2,1.686-13.5a117.2,117.2,0,0,1,8.188-20.256h-0.723ZM472.547,498.4c-0.645.678-.9,0.541-0.963,1.929a0.878,0.878,0,0,1,.241.483,0.881,0.881,0,0,0,.241-0.483A2.221,2.221,0,0,0,472.547,498.4Zm-10.114.241c-0.683,3.059-1.87,6.2-2.649,9.4q-0.241,2.894-.482,5.787c-0.274,1.252-.922,4.413-0.241,5.547a43.126,43.126,0,0,1,1.686-10.128c0.468-1.858.242-3.257,0.723-5.064C461.816,502.884,462.977,499.767,462.433,498.639Zm8.91,3.376c-1.883,3.5-5.374,13.469-3.612,18.568h0.241a24.571,24.571,0,0,1,1.2-5.787c0.786-2.854.683-5.338,1.445-8.2C470.925,505.455,471.975,503.16,471.343,502.015Zm-48.886,5.064a1.175,1.175,0,0,0,.241.724A1.175,1.175,0,0,0,422.457,507.079Zm60.927,4.582a1.169,1.169,0,0,0,.241.724v-0.724h-0.241Zm-63.817,5.305c-0.453,2.1-1.583,3.769-1.926,6.029h0.241v-0.241C418.711,521.913,420.143,518.189,419.567,516.966Zm-3.853,13.022a1.56,1.56,0,0,0,.241.964A1.56,1.56,0,0,0,415.714,529.988Zm-76.58,1.206a2.019,2.019,0,0,0,.241,1.205A2.019,2.019,0,0,0,339.134,531.194Zm314.99,0c13.548-.166,20.991,3.9,26.008,12.057a28.521,28.521,0,0,1,2.89,6.993c4.595,16.7-7.865,29.053-19.747,32.072a28.991,28.991,0,0,1-12.764-.483c-10.114-3.269-18.3-11.442-18.3-24.837a24.577,24.577,0,0,1,.723-7.476,26.665,26.665,0,0,1,14.69-16.638C649.363,532.149,652.617,532.138,654.124,531.194ZM411.38,547.832a1.169,1.169,0,0,0,.24.724A1.169,1.169,0,0,0,411.38,547.832Zm8.428,36.654c-0.341,1.094-1.079,1.567-1.445,2.653H418.6c0.769-.753,1.171-0.551,1.2-2.171,0.136-.172.348-0.01,0.241-0.482h-0.241Zm-3.13,4.341a9.751,9.751,0,0,1-1.686,2.411h0.241C415.891,590.608,417.164,589.851,416.678,588.827Z"/>
</svg>
