<svg xmlns="http://www.w3.org/2000/svg" width="81.391" height="114.576" viewBox="0 0 81.391 114.576">
  <path id="Icon_zocial-html5" data-name="Icon zocial-html5" d="M5.773,22.761H87.164l-7.685,82.672-33.069,9.432-33.069-9.432Zm7.569-6.986V.288h5.24V5.411h4.658V.288h5.123V15.774H23.239V10.651H18.582v5.123Zm7.569,23.87,2.795,30.973.116-.233H58.753L57.589,83.542,46.411,86.686l-11.295-3.26-.7-7.918H24.171l1.4,15.839,20.843,5.938,20.846-5.938,2.911-31.089H33.02l-.932-10.363H71.1l.935-10.247H20.911ZM30.691,5.528V.288H44.9v5.24H40.356V15.774h-5.12V5.528ZM47.109,15.774V.288h5.473l3.144,5.356L58.986.288h5.473V15.774H59.448V7.857l-3.722,5.822v-.116l-3.5-5.473v7.685Zm20.028,0V.288H72.26V10.535h7.216v5.24H67.137Z" transform="translate(-5.773 -0.288)"/>
</svg>
