<svg xmlns="http://www.w3.org/2000/svg" width="23" height="33.5" viewBox="0 0 23 33.5">
  <defs>
    <style>
      .cls-1 {
        fill: none;
        stroke: #000;
        stroke-linecap: round;
        stroke-linejoin: round;
        stroke-width: 2px;
      }
    </style>
  </defs>
  <g id="Icon_feather-figma" data-name="Icon feather-figma" transform="translate(-6.5 -2)">
    <path id="Path_1" data-name="Path 1" class="cls-1" d="M7.5,8.25A5.25,5.25,0,0,1,12.75,3H18V13.5H12.75A5.25,5.25,0,0,1,7.5,8.25Z"/>
    <path id="Path_2" data-name="Path 2" class="cls-1" d="M18,3h5.25a5.25,5.25,0,1,1,0,10.5H18Z"/>
    <path id="Path_3" data-name="Path 3" class="cls-1" d="M18,18.75A5.25,5.25,0,1,1,23.25,24,5.25,5.25,0,0,1,18,18.75Z"/>
    <path id="Path_4" data-name="Path 4" class="cls-1" d="M7.5,29.25A5.25,5.25,0,0,1,12.75,24H18v5.25a5.25,5.25,0,0,1-10.5,0Z"/>
    <path id="Path_5" data-name="Path 5" class="cls-1" d="M7.5,18.75a5.25,5.25,0,0,1,5.25-5.25H18V24H12.75A5.25,5.25,0,0,1,7.5,18.75Z"/>
  </g>
</svg>
