<svg xmlns="http://www.w3.org/2000/svg" width="93.233" height="73.255" viewBox="0 0 93.233 73.255">
  <g id="Icon_ionic-logo-javascript" data-name="Icon ionic-logo-javascript" transform="translate(24.75 -2.25)">
    <path id="Path_6" data-name="Path 6" d="M11.877,2.813H-4.771V47.036c0,10.942-3.753,14-10.283,14a24.876,24.876,0,0,1-7.96-1.262L-24.75,72.717A39.474,39.474,0,0,0-13.323,74.4c14.994,0,25.2-7.049,25.2-27.258V2.813Z" transform="translate(0 1.103)"/>
    <path id="Path_7" data-name="Path 7" d="M17.318,2.25C1.2,2.25-9,11.406-9,23.509c0,10.423,7.856,16.949,19.28,21.158,8.262,2.946,11.528,5.579,11.528,9.893,0,4.736-3.775,7.789-10.915,7.789A36.1,36.1,0,0,1-5.839,57.925v0L-9,71.078C-5.121,73.292,2.122,75.5,9.973,75.5c18.873,0,27.644-10.1,27.644-22,0-10.1-5.61-16.628-17.747-21.261-8.978-3.578-12.751-5.576-12.751-10.1,0-3.579,3.265-6.84,10-6.84a28.792,28.792,0,0,1,13.84,3.6L34.937,5.58A42.87,42.87,0,0,0,17.318,2.25Z" transform="translate(30.867 0)"/>
  </g>
</svg>
